<mxfile host="Electron" modified="2023-06-02T04:17:25.838Z" agent="Mozilla/5.0 (Macintosh; Intel Mac OS X 10_15_7) AppleWebKit/537.36 (KHTML, like Gecko) draw.io/21.2.8 Chrome/112.0.5615.165 Electron/24.2.0 Safari/537.36" etag="7oE3A0x-CvhSpt9ZLoSk" version="21.2.8" type="device">
  <diagram name="架构图" id="e7e014a7-5840-1c2e-5031-d8a46d1fe8dd">
    <mxGraphModel dx="1742" dy="659" grid="1" gridSize="10" guides="1" tooltips="1" connect="1" arrows="1" fold="1" page="1" pageScale="1" pageWidth="827" pageHeight="2069" background="#ffffff" math="0" shadow="0">
      <root>
        <mxCell id="0" />
        <mxCell id="1" parent="0" />
        <mxCell id="0D-Cm4iL27fyGav4VcNu-41" value="Settings" style="swimlane;horizontal=0;startSize=80;fontSize=18;labelBackgroundColor=none;labelBorderColor=none;fillColor=#f8cecc;strokeColor=#b85450;swimlaneFillColor=#ffffff;align=center;verticalAlign=middle;fontStyle=1;sketch=1;glass=0;" parent="1" vertex="1">
          <mxGeometry x="-35" y="310" width="1405" height="140" as="geometry" />
        </mxCell>
        <mxCell id="0D-Cm4iL27fyGav4VcNu-42" value="cssVariable.scss&lt;br&gt;样式定义" style="rounded=0;whiteSpace=wrap;html=1;labelBackgroundColor=none;fontSize=18;align=center;shadow=0;sketch=1;fillColor=#f8cecc;strokeColor=#b85450;glass=0;" parent="0D-Cm4iL27fyGav4VcNu-41" vertex="1">
          <mxGeometry x="395" y="45" width="150" height="50" as="geometry" />
        </mxCell>
        <mxCell id="0D-Cm4iL27fyGav4VcNu-49" value="scssVariable.scss&lt;br&gt;参数定义" style="rounded=0;whiteSpace=wrap;html=1;labelBackgroundColor=none;fontSize=18;align=center;shadow=0;sketch=1;fillColor=#f8cecc;strokeColor=#b85450;" parent="0D-Cm4iL27fyGav4VcNu-41" vertex="1">
          <mxGeometry x="825" y="45" width="150" height="50" as="geometry" />
        </mxCell>
        <mxCell id="0D-Cm4iL27fyGav4VcNu-43" value="Mixins" style="swimlane;horizontal=0;startSize=80;fontSize=18;labelBackgroundColor=none;labelBorderColor=none;fillColor=#ffe6cc;strokeColor=#d79b00;swimlaneFillColor=#ffffff;align=center;verticalAlign=middle;fontStyle=1;sketch=1;glass=0;" parent="1" vertex="1">
          <mxGeometry x="-35" y="480" width="1405" height="130" as="geometry" />
        </mxCell>
        <mxCell id="0D-Cm4iL27fyGav4VcNu-44" value="_animation.scss&lt;br&gt;动画" style="rounded=0;whiteSpace=wrap;html=1;labelBackgroundColor=none;fontSize=18;align=center;shadow=0;sketch=1;fillColor=#ffe6cc;strokeColor=#d79b00;" parent="0D-Cm4iL27fyGav4VcNu-43" vertex="1">
          <mxGeometry x="155" y="40" width="150" height="50" as="geometry" />
        </mxCell>
        <mxCell id="0D-Cm4iL27fyGav4VcNu-51" value="_effect.scss&lt;br&gt;效果" style="rounded=0;whiteSpace=wrap;html=1;labelBackgroundColor=none;fontSize=18;align=center;shadow=0;sketch=1;fillColor=#ffe6cc;strokeColor=#d79b00;" parent="0D-Cm4iL27fyGav4VcNu-43" vertex="1">
          <mxGeometry x="345" y="40" width="150" height="50" as="geometry" />
        </mxCell>
        <mxCell id="0D-Cm4iL27fyGav4VcNu-52" value="_filter.scss&lt;br&gt;滤镜" style="rounded=0;whiteSpace=wrap;html=1;labelBackgroundColor=none;fontSize=18;align=center;shadow=0;sketch=1;fillColor=#ffe6cc;strokeColor=#d79b00;" parent="0D-Cm4iL27fyGav4VcNu-43" vertex="1">
          <mxGeometry x="535" y="40" width="150" height="50" as="geometry" />
        </mxCell>
        <mxCell id="0D-Cm4iL27fyGav4VcNu-53" value="_font.scss&lt;br&gt;文本" style="rounded=0;whiteSpace=wrap;html=1;labelBackgroundColor=none;fontSize=18;align=center;shadow=0;sketch=1;fillColor=#ffe6cc;strokeColor=#d79b00;" parent="0D-Cm4iL27fyGav4VcNu-43" vertex="1">
          <mxGeometry x="722" y="40" width="150" height="50" as="geometry" />
        </mxCell>
        <mxCell id="0D-Cm4iL27fyGav4VcNu-54" value="_image.scss&lt;br&gt;图片" style="rounded=0;whiteSpace=wrap;html=1;labelBackgroundColor=none;fontSize=18;align=center;shadow=0;sketch=1;fillColor=#ffe6cc;strokeColor=#d79b00;" parent="0D-Cm4iL27fyGav4VcNu-43" vertex="1">
          <mxGeometry x="905" y="40" width="150" height="50" as="geometry" />
        </mxCell>
        <mxCell id="0D-Cm4iL27fyGav4VcNu-55" value="_layout.scss&lt;br&gt;布局" style="rounded=0;whiteSpace=wrap;html=1;labelBackgroundColor=none;fontSize=18;align=center;shadow=0;sketch=1;fillColor=#ffe6cc;strokeColor=#d79b00;" parent="0D-Cm4iL27fyGav4VcNu-43" vertex="1">
          <mxGeometry x="1085" y="40" width="150" height="50" as="geometry" />
        </mxCell>
        <mxCell id="0D-Cm4iL27fyGav4VcNu-45" value="Base" style="swimlane;horizontal=0;startSize=80;fontSize=18;labelBackgroundColor=none;labelBorderColor=none;fillColor=#d5e8d4;strokeColor=#82b366;swimlaneFillColor=#ffffff;align=center;verticalAlign=middle;fontStyle=1;sketch=1;glass=0;" parent="1" vertex="1">
          <mxGeometry x="-35" y="650" width="685" height="210" as="geometry" />
        </mxCell>
        <mxCell id="0D-Cm4iL27fyGav4VcNu-46" value="_reset.scss&lt;br&gt;重置" style="rounded=0;whiteSpace=wrap;html=1;labelBackgroundColor=none;fontSize=18;align=center;shadow=0;sketch=1;fillColor=#d5e8d4;strokeColor=#82b366;" parent="0D-Cm4iL27fyGav4VcNu-45" vertex="1">
          <mxGeometry x="485" y="40" width="150" height="50" as="geometry" />
        </mxCell>
        <mxCell id="0D-Cm4iL27fyGav4VcNu-62" value="_responsive.scss&lt;br&gt;响应式" style="rounded=0;whiteSpace=wrap;html=1;labelBackgroundColor=none;fontSize=18;align=center;shadow=0;sketch=1;fillColor=#d5e8d4;strokeColor=#82b366;" parent="0D-Cm4iL27fyGav4VcNu-45" vertex="1">
          <mxGeometry x="125" y="120" width="150" height="50" as="geometry" />
        </mxCell>
        <mxCell id="0D-Cm4iL27fyGav4VcNu-61" value="_dpr.scss&lt;br&gt;像素比" style="rounded=0;whiteSpace=wrap;html=1;labelBackgroundColor=none;fontSize=18;align=center;shadow=0;sketch=1;fillColor=#d5e8d4;strokeColor=#82b366;" parent="0D-Cm4iL27fyGav4VcNu-45" vertex="1">
          <mxGeometry x="125" y="40" width="150" height="50" as="geometry" />
        </mxCell>
        <mxCell id="k6RmlHaKGHc4zmURy60U-1" value="_mode.scss&lt;br&gt;暗色模式" style="rounded=0;whiteSpace=wrap;html=1;labelBackgroundColor=none;fontSize=18;align=center;shadow=0;sketch=1;fillColor=#d5e8d4;strokeColor=#82b366;" parent="0D-Cm4iL27fyGav4VcNu-45" vertex="1">
          <mxGeometry x="305" y="40" width="150" height="50" as="geometry" />
        </mxCell>
        <mxCell id="0D-Cm4iL27fyGav4VcNu-63" value="Component" style="swimlane;horizontal=0;startSize=80;fontSize=18;labelBackgroundColor=none;labelBorderColor=none;fillColor=#dae8fc;strokeColor=#6c8ebf;swimlaneFillColor=#ffffff;align=center;verticalAlign=middle;fontStyle=1;sketch=1;glass=0;" parent="1" vertex="1">
          <mxGeometry x="-35" y="900" width="1405" height="150" as="geometry" />
        </mxCell>
        <mxCell id="0D-Cm4iL27fyGav4VcNu-64" value="vue template" style="rounded=0;whiteSpace=wrap;html=1;labelBackgroundColor=none;fontSize=18;align=center;shadow=0;sketch=1;fillColor=#dae8fc;strokeColor=#6c8ebf;" parent="0D-Cm4iL27fyGav4VcNu-63" vertex="1">
          <mxGeometry x="275" y="50" width="150" height="50" as="geometry" />
        </mxCell>
        <mxCell id="0D-Cm4iL27fyGav4VcNu-65" value="react jsx" style="rounded=0;whiteSpace=wrap;html=1;labelBackgroundColor=none;fontSize=18;align=center;shadow=0;sketch=1;fillColor=#dae8fc;strokeColor=#6c8ebf;" parent="0D-Cm4iL27fyGav4VcNu-63" vertex="1">
          <mxGeometry x="627.5" y="50" width="150" height="50" as="geometry" />
        </mxCell>
        <mxCell id="0D-Cm4iL27fyGav4VcNu-68" value="其他" style="rounded=0;whiteSpace=wrap;html=1;labelBackgroundColor=none;fontSize=18;align=center;shadow=0;sketch=1;fillColor=#dae8fc;strokeColor=#6c8ebf;" parent="0D-Cm4iL27fyGav4VcNu-63" vertex="1">
          <mxGeometry x="985" y="50" width="150" height="50" as="geometry" />
        </mxCell>
        <mxCell id="0D-Cm4iL27fyGav4VcNu-70" value="Atomic" style="swimlane;horizontal=0;startSize=80;fontSize=18;labelBackgroundColor=none;labelBorderColor=none;fillColor=#e1d5e7;strokeColor=#9673a6;swimlaneFillColor=#ffffff;align=center;verticalAlign=middle;fontStyle=1;sketch=1;glass=0;" parent="1" vertex="1">
          <mxGeometry x="690" y="650" width="680" height="210" as="geometry" />
        </mxCell>
        <mxCell id="0D-Cm4iL27fyGav4VcNu-71" value="_animation.scss&lt;br&gt;动画" style="rounded=0;whiteSpace=wrap;html=1;labelBackgroundColor=none;fontSize=18;align=center;shadow=0;sketch=1;fillColor=#e1d5e7;strokeColor=#9673a6;" parent="0D-Cm4iL27fyGav4VcNu-70" vertex="1">
          <mxGeometry x="120" y="40" width="150" height="50" as="geometry" />
        </mxCell>
        <mxCell id="0D-Cm4iL27fyGav4VcNu-72" value="_box.scss&lt;br&gt;盒模型" style="rounded=0;whiteSpace=wrap;html=1;labelBackgroundColor=none;fontSize=18;align=center;shadow=0;sketch=1;fillColor=#e1d5e7;strokeColor=#9673a6;" parent="0D-Cm4iL27fyGav4VcNu-70" vertex="1">
          <mxGeometry x="299" y="40" width="150" height="50" as="geometry" />
        </mxCell>
        <mxCell id="0D-Cm4iL27fyGav4VcNu-73" value="_misc.scss&lt;br&gt;其他" style="rounded=0;whiteSpace=wrap;html=1;labelBackgroundColor=none;fontSize=18;align=center;shadow=0;sketch=1;fillColor=#e1d5e7;strokeColor=#9673a6;" parent="0D-Cm4iL27fyGav4VcNu-70" vertex="1">
          <mxGeometry x="485" y="40" width="150" height="50" as="geometry" />
        </mxCell>
        <mxCell id="0D-Cm4iL27fyGav4VcNu-75" value="_position.scss&lt;br&gt;定位" style="rounded=0;whiteSpace=wrap;html=1;labelBackgroundColor=none;fontSize=18;align=center;shadow=0;sketch=1;fillColor=#e1d5e7;strokeColor=#9673a6;" parent="0D-Cm4iL27fyGav4VcNu-70" vertex="1">
          <mxGeometry x="120" y="120" width="150" height="50" as="geometry" />
        </mxCell>
        <mxCell id="0D-Cm4iL27fyGav4VcNu-76" value="_typography.scss&lt;br&gt;文字排版" style="rounded=0;whiteSpace=wrap;html=1;labelBackgroundColor=none;fontSize=18;align=center;shadow=0;sketch=1;fillColor=#e1d5e7;strokeColor=#9673a6;" parent="0D-Cm4iL27fyGav4VcNu-70" vertex="1">
          <mxGeometry x="299" y="120" width="150" height="50" as="geometry" />
        </mxCell>
        <mxCell id="0D-Cm4iL27fyGav4VcNu-77" value="_visual.scss&lt;br&gt;视觉" style="rounded=0;whiteSpace=wrap;html=1;labelBackgroundColor=none;fontSize=18;align=center;shadow=0;sketch=1;fillColor=#e1d5e7;strokeColor=#9673a6;" parent="0D-Cm4iL27fyGav4VcNu-70" vertex="1">
          <mxGeometry x="485" y="120" width="150" height="50" as="geometry" />
        </mxCell>
      </root>
    </mxGraphModel>
  </diagram>
</mxfile>
